<?xml version="1.0" encoding="utf-8"?>
<!-- Generator: Adobe Illustrator 25.4.1, SVG Export Plug-In . SVG Version: 6.00 Build 0)  -->
<svg version="1.1" id="Layer_1" xmlns="http://www.w3.org/2000/svg" xmlns:xlink="http://www.w3.org/1999/xlink" x="0px" y="0px"
	 viewBox="0 0 32 32" style="enable-background:new 0 0 32 32;" xml:space="preserve">
<style type="text/css">
	.st0{fill:#FFFFFF;}
</style>
<g id="XMLID_00000047755919751414488110000007807241217498808730_">
	<g>
		<path class="st0" d="M28,6c1.1,0,2,0.9,2,2s-0.9,2-2,2H4c-1.1,0-2-0.9-2-2s0.9-2,2-2H28z"/>
		<path class="st0" d="M28,14c1.1,0,2,0.9,2,2s-0.9,2-2,2H4c-1.1,0-2-0.9-2-2s0.9-2,2-2H28z"/>
		<path class="st0" d="M28,22c1.1,0,2,0.9,2,2s-0.9,2-2,2H4c-1.1,0-2-0.9-2-2s0.9-2,2-2H28z"/>
	</g>
	<g>
	</g>
</g>
</svg>
